<svg width="14" height="14" viewBox="0 0 14 14" fill="none" xmlns="http://www.w3.org/2000/svg">
<g id="Star" clip-path="url(#clip0_70_104)">
<path id="Star_2" d="M7.00454 1.5302C7.11385 1.26739 7.48615 1.26739 7.59546 1.5302L8.91776 4.70939C8.96384 4.82018 9.06804 4.89589 9.18765 4.90548L12.6198 5.18063C12.9036 5.20338 13.0186 5.55746 12.8025 5.74264L10.1875 7.98264C10.0963 8.0607 10.0565 8.18319 10.0844 8.29991L10.8833 11.6492C10.9494 11.926 10.6482 12.1449 10.4052 11.9965L7.4668 10.2017C7.36439 10.1392 7.2356 10.1392 7.1332 10.2017L4.19476 11.9965C3.95184 12.1449 3.65064 11.926 3.71669 11.6492L4.5156 8.29991C4.54345 8.18319 4.50365 8.0607 4.41252 7.98264L1.79754 5.74264C1.58137 5.55746 1.69642 5.20338 1.98015 5.18063L5.41235 4.90548C5.53196 4.89589 5.63616 4.82018 5.68224 4.70939L7.00454 1.5302Z" fill="#FDB022"/>
</g>
<defs>
<clipPath id="clip0_70_104">
<rect width="12.8" height="12.8" fill="white" transform="translate(0.899996 0.5)"/>
</clipPath>
</defs>
</svg>
