<svg width="30" height="65" viewBox="0 0 30 65" fill="none" xmlns="http://www.w3.org/2000/svg">
<g id="Wreath right">
<g id="Vector">
<path fill-rule="evenodd" clip-rule="evenodd" d="M1.84956 63.4982C11.6924 62.1353 18.8581 54.3915 22.1273 43.8068C23.4703 39.426 23.6647 34.5673 23.1964 29.4873C22.3305 20.416 18.169 12.5394 12.0989 6.79571C12.0724 6.76916 12.0635 6.76031 12.0547 6.78686C12.037 6.81341 11.984 6.83996 11.9575 6.85766C11.9222 6.87536 11.9133 6.85766 11.9398 6.90191C18.381 12.8049 22.5161 22.1949 22.9667 31.6822C23.6647 45.2317 17.091 57.2324 7.2393 61.3654C5.58703 62.0645 3.85525 62.5955 2.05278 62.8699C1.92908 63.0292 1.8584 63.2504 1.84956 63.4982Z" fill="white"/>
<path fill-rule="evenodd" clip-rule="evenodd" d="M26.3861 40.8686C25.5821 41.8244 24.3009 42.7625 22.9225 42.3996C22.8518 42.5058 22.4896 43.0368 22.4366 43.1165C22.3747 43.2138 22.2599 43.3112 22.1715 43.2315C22.1185 43.1961 22.0743 43.1165 22.1273 42.9926C22.3305 42.7448 22.5249 42.4881 22.7547 42.2226C23.1611 40.072 23.7531 38.6383 24.9901 37.1869C26.4214 35.5231 27.8881 34.7797 28.7982 34.4699C28.9308 34.4345 29.0545 34.3991 29.187 34.3549C29.2753 35.1868 28.8954 36.3993 28.595 37.0896C28.0118 38.5056 27.3757 39.7446 26.3861 40.8686Z" fill="white"/>
<path fill-rule="evenodd" clip-rule="evenodd" d="M14.5464 10.5747C14.6612 10.619 15.3327 10.796 15.4122 10.6632C15.4388 10.6278 15.4034 10.495 15.3416 10.4862C15.0942 10.4596 14.8203 10.4419 14.5817 10.3888C14.1488 9.02593 12.9471 8.43298 11.8427 8.20288C10.5173 7.93737 9.05943 8.34448 7.49553 8.56573C7.41601 8.58343 7.32765 8.59228 7.25697 8.59228C7.28347 8.64538 7.31881 8.68078 7.35416 8.73388C8.00799 9.62774 9.03293 10.4508 10.0314 10.8579C10.7029 11.1411 11.5069 11.3004 12.2933 11.2739C13.1238 11.2385 13.8218 11.0526 14.5464 10.5747Z" fill="white"/>
<path fill-rule="evenodd" clip-rule="evenodd" d="M11.9575 6.84881C11.9045 6.86651 11.9045 6.84881 11.8073 6.79571C11.6218 6.61871 11.4627 6.51251 11.2772 6.34436C10.2169 6.35321 9.20964 6.0346 8.25539 5.3974C7.83128 5.11419 7.40717 4.76904 7.05375 4.35309C6.20553 3.44153 5.52518 2.10516 5.21594 0.88385C5.19827 0.81305 5.18943 0.768799 5.1806 0.697998C5.26012 0.733398 5.3308 0.7688 5.41032 0.8042C7.12443 1.49451 8.78553 1.81311 10.1639 3.14947C11.1005 4.04333 11.5864 5.12304 11.392 6.16735C11.6041 6.33551 11.825 6.49481 12.0282 6.68951C12.1166 6.76916 12.0105 6.84881 11.9575 6.84881Z" fill="white"/>
<path fill-rule="evenodd" clip-rule="evenodd" d="M18.1955 16.283C18.3103 16.345 18.9553 16.6813 19.0525 16.5662C19.0967 16.522 19.079 16.3804 19.0172 16.3538C18.7786 16.2653 18.4959 16.2034 18.2573 16.0972C18.169 15.1325 17.63 14.2298 16.5609 13.6103C14.9263 12.743 13.0708 12.8846 11.3214 12.7341C11.233 12.7253 11.1535 12.7253 11.074 12.7164C11.1005 12.7695 11.127 12.8138 11.1446 12.8669C11.7278 13.8758 12.6732 14.9643 13.6363 15.5839C14.2813 16.0175 15.0765 16.345 15.8717 16.5043C16.7111 16.6724 17.4268 16.5751 18.1955 16.283Z" fill="white"/>
<path fill-rule="evenodd" clip-rule="evenodd" d="M26.7572 31.1689C26.2271 32.3636 25.2728 33.6734 23.8768 33.7619C23.8326 33.8858 23.5764 34.4611 23.541 34.5496C23.5145 34.6735 23.4262 34.8063 23.3113 34.7531C23.2583 34.7354 23.2053 34.6646 23.2141 34.5407C23.3466 34.2221 23.5145 33.9743 23.6736 33.6469C23.5499 31.4521 23.6736 29.8502 24.5129 28.0448C25.4672 25.965 26.7749 24.7702 27.5789 24.1861C27.6761 24.0976 27.791 24.0268 27.9058 23.956C28.0914 24.8056 28.0295 26.1243 27.9147 26.8854C27.7114 28.4253 27.3845 29.7794 26.7572 31.1689Z" fill="white"/>
<path fill-rule="evenodd" clip-rule="evenodd" d="M25.1933 22.3542C24.9636 23.6286 24.3892 24.9118 23.1169 25.4694C23.0992 25.6022 22.9579 26.2217 22.9402 26.319C22.9402 26.4518 22.896 26.6022 22.7723 26.5845C22.737 26.5757 22.6486 26.5403 22.6398 26.4075C22.6928 26.0712 22.79 25.6907 22.8518 25.3278C22.4277 23.779 22.198 22.363 22.2687 20.8497C22.3836 18.7168 23.1788 16.8671 24.4334 15.3803C24.5306 15.2741 24.6013 15.159 24.6897 15.0617C25.0431 15.7963 25.2728 17.053 25.3347 17.8052C25.4672 19.3274 25.4584 20.8585 25.1933 22.3542Z" fill="white"/>
<path fill-rule="evenodd" clip-rule="evenodd" d="M21.986 14.3094C22.0213 15.6193 21.7032 17.0884 20.6076 17.938C20.6164 18.0707 20.6429 18.7079 20.6429 18.7964C20.6606 18.9203 20.6518 19.0708 20.5281 19.0973C20.4839 19.0973 20.4044 19.0885 20.3779 18.9646C20.3514 18.6371 20.3425 18.1327 20.3249 17.7698C19.3883 16.1768 18.8846 14.4422 18.867 12.4598C18.8316 10.1676 19.3971 8.70733 19.8477 7.78692C19.9096 7.66302 19.9714 7.53912 20.0333 7.41522C20.5281 8.01702 20.9964 9.16754 21.2084 9.87554C21.6325 11.3093 21.9418 12.8049 21.986 14.3094Z" fill="white"/>
<path fill-rule="evenodd" clip-rule="evenodd" d="M17.1264 6.96386C17.4091 8.19402 17.3296 9.99944 16.4107 10.7429C16.446 10.9022 16.5255 11.4509 16.5344 11.5748C16.5697 11.7075 16.5962 11.8314 16.4902 11.8845C16.446 11.9022 16.4107 11.9022 16.3577 11.7872C16.2958 11.442 16.2781 11.1588 16.2251 10.8048C14.9175 9.40649 14.1753 8.02587 13.76 6.1408C13.3447 4.16723 13.4066 2.60077 13.5833 1.49451C13.6009 1.36175 13.6363 1.229 13.6716 1.0874C14.8203 2.00781 15.6331 3.22027 16.3223 4.60089C16.6934 5.35315 16.985 6.1231 17.1264 6.96386Z" fill="white"/>
<path fill-rule="evenodd" clip-rule="evenodd" d="M21.1289 23.8144C21.2349 23.9118 21.8181 24.4693 21.9594 24.3985C21.9948 24.3631 22.0213 24.1773 21.9594 24.1419C21.7386 23.9649 21.4558 23.8321 21.2349 23.664C21.3056 22.602 21.067 21.5223 20.104 20.5134C18.6196 19.0708 16.6492 18.584 14.8556 17.8406C14.7761 17.8052 14.6966 17.761 14.5994 17.7256C14.617 17.7875 14.6259 17.8583 14.6524 17.9203C15.0058 19.1593 15.7127 20.6019 16.5697 21.5754C17.1264 22.2303 17.8774 22.8586 18.6638 23.2746C19.4855 23.7171 20.263 23.8587 21.1289 23.8144Z" fill="white"/>
<path fill-rule="evenodd" clip-rule="evenodd" d="M22.3659 32.461C22.4454 32.6026 22.9137 33.3637 23.0639 33.3283C23.1257 33.3283 23.1876 33.1424 23.1434 33.0716C22.949 32.815 22.7016 32.6114 22.5338 32.3459C22.8342 31.3724 22.6928 29.9652 21.9683 28.62C20.8196 26.6553 19.1409 25.6995 17.5151 24.3277C17.4444 24.2569 17.3738 24.195 17.2942 24.1153C17.2854 24.1773 17.2766 24.2481 17.2854 24.3277C17.3207 25.673 17.6742 27.3633 18.3015 28.6377C18.7079 29.4962 19.3088 30.3547 19.9979 31.0715C20.7136 31.7884 21.4735 32.2043 22.3659 32.461Z" fill="white"/>
<path fill-rule="evenodd" clip-rule="evenodd" d="M21.553 40.9394C21.6149 41.1075 21.9329 42.0102 22.092 42.0456C22.145 42.0368 22.251 41.904 22.2068 41.8067C22.0743 41.5058 21.9241 41.1606 21.8004 40.8509C22.3482 40.3287 22.5338 38.8773 22.092 37.3551C21.3586 35.1248 19.724 33.4522 18.4075 31.6025C18.3457 31.514 18.2838 31.4255 18.222 31.337C18.2043 31.399 18.1955 31.4698 18.1778 31.5406C17.9481 32.8415 17.9657 34.5673 18.3192 35.9745C18.5577 36.9126 18.973 37.948 19.512 38.833C20.0686 39.7711 20.7313 40.4172 21.553 40.9394Z" fill="white"/>
<path fill-rule="evenodd" clip-rule="evenodd" d="M23.5234 50.8603C22.5249 51.5152 20.7401 52.0108 19.512 51.2055C19.4148 51.2763 18.9023 51.586 18.8405 51.6391C18.7521 51.7276 18.6284 51.7896 18.5489 51.6657C18.5047 51.6126 18.4782 51.5241 18.5666 51.4267C18.8228 51.2497 19.1055 51.1347 19.3794 50.9577C20.316 49.0106 21.3233 47.692 22.8695 46.7185C24.6366 45.5857 26.1122 45.568 27.0576 45.568C27.1901 45.568 27.3227 45.5768 27.4552 45.5768C27.2255 47.4973 24.8487 50.0373 23.5234 50.8603Z" fill="white"/>
<path fill-rule="evenodd" clip-rule="evenodd" d="M18.6196 49.3558C18.6284 49.4797 18.6903 50.0284 18.7786 50.3647C18.8051 50.4621 18.814 50.6037 18.9465 50.5506C18.9995 50.5417 19.0525 50.4267 19.0525 50.3736C18.9907 50.0461 18.9377 49.6744 18.9112 49.3469C19.5208 48.9575 19.9979 47.6831 20.0951 46.1167C19.9891 43.7537 18.9288 41.612 18.0806 39.3817C18.0541 39.2844 18.0188 39.1782 17.9834 39.072C17.9481 39.1251 17.9304 39.1782 17.8951 39.2313C17.3296 40.3995 16.8966 42.0368 16.8613 43.5147C16.8259 44.4794 16.9673 45.6034 17.2501 46.6477C17.5505 47.7185 17.9922 48.5593 18.6196 49.3558Z" fill="white"/>
<path fill-rule="evenodd" clip-rule="evenodd" d="M18.1159 58.9404C16.9673 59.1705 15.4122 59.1174 14.4403 57.8784C14.1929 57.9138 13.7953 57.9758 13.5391 57.9935C13.4684 58.0023 13.4154 57.9492 13.3889 57.8607C13.3712 57.7988 13.3889 57.7191 13.5038 57.6572C13.7953 57.5952 14.0869 57.5952 14.3962 57.5421C15.6862 56.0288 16.9055 55.1792 18.6638 54.8606C20.6959 54.4888 22.4189 55.011 23.3378 55.3916C23.4615 55.4358 23.594 55.4889 23.7089 55.5509C23.382 56.2854 22.4277 57.0377 21.8269 57.4005C20.6783 58.1616 19.5031 58.7103 18.1159 58.9404Z" fill="white"/>
<path fill-rule="evenodd" clip-rule="evenodd" d="M14.0074 55.7456C13.9897 55.8783 13.972 56.4093 13.972 56.7633C13.9809 56.8607 13.9544 56.9934 14.0869 57.0023C14.1488 57.0023 14.2194 56.9226 14.2194 56.8607C14.2459 56.5332 14.2283 56.1792 14.2813 55.8429C14.9616 55.6305 15.8629 54.595 16.2781 53.1702C16.7553 50.8869 16.234 48.5327 15.9866 46.1167C15.9689 46.0105 15.9777 45.9043 15.9689 45.7892C15.9247 45.8335 15.8717 45.8777 15.8275 45.922C14.997 46.8335 14.1664 48.2407 13.7688 49.6213C13.4949 50.524 13.3535 51.6391 13.3535 52.71C13.3712 53.8339 13.6009 54.7809 14.0074 55.7456Z" fill="white"/>
<path fill-rule="evenodd" clip-rule="evenodd" d="M7.57505 60.3919C7.5132 60.4892 7.43368 60.9317 7.34532 61.268C7.31882 61.3477 7.2658 61.4716 7.3895 61.5158C7.45135 61.5424 7.53087 61.4893 7.54854 61.4362C7.66341 61.153 7.6634 60.8521 7.80477 60.5689C8.46745 60.7282 9.61608 59.8874 10.3671 58.79C11.4097 56.8961 11.5246 54.6747 11.931 52.4179C11.9398 52.3117 11.9752 52.2144 11.9929 52.1082C11.9398 52.117 11.8868 52.1524 11.8338 52.1701C10.8354 52.6746 9.6956 53.5684 8.96224 54.6659C8.45861 55.3739 7.99032 56.3562 7.72525 57.3386C7.45135 58.374 7.44251 59.3564 7.57505 60.3919Z" fill="white"/>
<path fill-rule="evenodd" clip-rule="evenodd" d="M11.1888 64.6045C10.0137 64.4452 8.49395 63.9053 7.82245 62.4008C7.58389 62.33 7.16861 62.2858 6.92121 62.215C6.85053 62.2061 6.81519 62.1265 6.80635 62.0291C6.80635 61.976 6.84169 61.8964 6.96539 61.8787C7.25697 61.9229 7.54854 62.0114 7.87546 62.0468C9.58074 61.0379 10.9591 60.5777 12.7527 60.8344C14.8114 61.1264 16.3135 62.1619 17.1175 62.8256C17.2324 62.923 17.3473 63.0115 17.4533 63.1088C16.9585 63.7195 15.8452 64.1266 15.1825 64.3036C13.8837 64.6665 12.6114 64.8081 11.1888 64.6045Z" fill="white"/>
</g>
</g>
</svg>
