<svg width="29" height="65" viewBox="0 0 29 65" fill="none" xmlns="http://www.w3.org/2000/svg">
<g id="Wreath left">
<g id="Vector">
<path fill-rule="evenodd" clip-rule="evenodd" d="M27.3504 63.4982C17.5075 62.1353 10.3418 54.3915 7.07262 43.8068C5.72961 39.426 5.53522 34.5673 6.00351 29.4873C6.8694 20.416 11.031 12.5394 17.1011 6.79571C17.1276 6.76916 17.1364 6.76031 17.1452 6.78686C17.1629 6.81341 17.2159 6.83996 17.2424 6.85766C17.2778 6.87536 17.2866 6.85766 17.2601 6.90191C10.8189 12.8049 6.68385 22.1949 6.23324 31.6822C5.53522 45.2317 12.1089 57.2324 21.9606 61.3654C23.6129 62.0645 25.3447 62.5955 27.1472 62.8699C27.2709 63.0292 27.3415 63.2504 27.3504 63.4982Z" fill="white"/>
<path fill-rule="evenodd" clip-rule="evenodd" d="M2.81385 40.8686C3.61789 41.8244 4.89906 42.7625 6.27741 42.3996C6.3481 42.5058 6.71036 43.0368 6.76337 43.1165C6.82522 43.2138 6.94009 43.3112 7.02844 43.2315C7.08146 43.1961 7.12563 43.1165 7.07262 42.9926C6.8694 42.7448 6.67502 42.4881 6.44529 42.2226C6.03885 40.0721 5.44687 38.6383 4.20988 37.1869C2.77851 35.5231 1.31179 34.7797 0.401724 34.4699C0.26919 34.4345 0.145492 34.3991 0.0129575 34.3549C-0.0753988 35.1868 0.304533 36.3993 0.604944 37.0896C1.1881 38.5056 1.82426 39.7446 2.81385 40.8686Z" fill="white"/>
<path fill-rule="evenodd" clip-rule="evenodd" d="M14.6536 10.5747C14.5387 10.619 13.8672 10.796 13.7877 10.6632C13.7612 10.6278 13.7965 10.495 13.8584 10.4862C14.1058 10.4596 14.3797 10.4419 14.6182 10.3888C15.0512 9.02593 16.2528 8.43298 17.3573 8.20288C18.6826 7.93737 20.1405 8.34448 21.7044 8.56573C21.7839 8.58343 21.8723 8.59228 21.943 8.59228C21.9165 8.64538 21.8811 8.68078 21.8458 8.73388C21.192 9.62774 20.167 10.4508 19.1686 10.8579C18.4971 11.1411 17.693 11.3004 16.9067 11.2739C16.0761 11.2385 15.3781 11.0526 14.6536 10.5747Z" fill="white"/>
<path fill-rule="evenodd" clip-rule="evenodd" d="M17.2424 6.84881C17.2954 6.86651 17.2954 6.84881 17.3926 6.79571C17.5782 6.61871 17.7372 6.51251 17.9228 6.34436C18.983 6.35321 19.9903 6.0346 20.9446 5.3974C21.3687 5.11419 21.7928 4.76904 22.1462 4.35309C22.9944 3.44153 23.6748 2.10516 23.984 0.88385C24.0017 0.81305 24.0105 0.768799 24.0193 0.697998C23.9398 0.733398 23.8691 0.7688 23.7896 0.8042C22.0755 1.49451 20.4144 1.81311 19.0361 3.14947C18.0995 4.04333 17.6135 5.12304 17.8079 6.16735C17.5959 6.33551 17.375 6.49481 17.1717 6.68951C17.0834 6.76916 17.1894 6.84881 17.2424 6.84881Z" fill="white"/>
<path fill-rule="evenodd" clip-rule="evenodd" d="M11.0045 16.283C10.8896 16.345 10.2446 16.6813 10.1474 16.5662C10.1032 16.522 10.1209 16.3804 10.1828 16.3538C10.4213 16.2653 10.7041 16.2034 10.9426 16.0972C11.031 15.1325 11.57 14.2298 12.6391 13.6103C14.2737 12.743 16.1291 12.8846 17.8786 12.7341C17.9669 12.7253 18.0465 12.7253 18.126 12.7164C18.0995 12.7695 18.073 12.8138 18.0553 12.8669C17.4722 13.8758 16.5267 14.9643 15.5637 15.5839C14.9187 16.0175 14.1234 16.345 13.3282 16.5043C12.4889 16.6724 11.7732 16.5751 11.0045 16.283Z" fill="white"/>
<path fill-rule="evenodd" clip-rule="evenodd" d="M2.44275 31.1689C2.97289 32.3636 3.92714 33.6734 5.32317 33.7619C5.36734 33.8858 5.62358 34.4611 5.65892 34.5496C5.68543 34.6735 5.77378 34.8063 5.88865 34.7531C5.94166 34.7354 5.99467 34.6646 5.98584 34.5407C5.8533 34.2221 5.68543 33.9743 5.52639 33.6469C5.65009 31.4521 5.52639 29.8502 4.687 28.0448C3.73275 25.965 2.42508 24.7702 1.62104 24.1861C1.52385 24.0976 1.40899 24.0268 1.29412 23.956C1.10858 24.8056 1.17042 26.1243 1.28529 26.8854C1.48851 28.4253 1.81543 29.7794 2.44275 31.1689Z" fill="white"/>
<path fill-rule="evenodd" clip-rule="evenodd" d="M4.00666 22.3542C4.23639 23.6286 4.8107 24.9118 6.08303 25.4694C6.1007 25.6022 6.24207 26.2217 6.25974 26.319C6.25974 26.4518 6.30392 26.6022 6.42762 26.5845C6.46296 26.5757 6.55132 26.5403 6.56015 26.4075C6.50714 26.0712 6.40995 25.6907 6.3481 25.3278C6.77221 23.779 7.00194 22.363 6.93125 20.8497C6.81639 18.7168 6.02118 16.8671 4.76652 15.3803C4.66933 15.2741 4.59865 15.159 4.51029 15.0617C4.15686 15.7963 3.92714 17.053 3.86529 17.8052C3.73275 19.3274 3.74159 20.8585 4.00666 22.3542Z" fill="white"/>
<path fill-rule="evenodd" clip-rule="evenodd" d="M7.21399 14.3094C7.17865 15.6193 7.49673 17.0884 8.59235 17.938C8.58351 18.0707 8.55701 18.7079 8.55701 18.7964C8.53934 18.9203 8.54817 19.0708 8.67187 19.0973C8.71605 19.0973 8.79557 19.0885 8.82208 18.9646C8.84858 18.6371 8.85742 18.1327 8.87509 17.7698C9.81166 16.1768 10.3153 14.4422 10.333 12.4598C10.3683 10.1676 9.80283 8.70733 9.35221 7.78692C9.29036 7.66302 9.22851 7.53912 9.16666 7.41522C8.67187 8.01702 8.20358 9.16754 7.99153 9.87554C7.56742 11.3093 7.25817 12.8049 7.21399 14.3094Z" fill="white"/>
<path fill-rule="evenodd" clip-rule="evenodd" d="M12.0736 6.96386C11.7908 8.19403 11.8704 9.99944 12.7893 10.7429C12.7539 10.9022 12.6744 11.4509 12.6656 11.5748C12.6302 11.7075 12.6037 11.8314 12.7097 11.8845C12.7539 11.9022 12.7893 11.9022 12.8423 11.7872C12.9041 11.442 12.9218 11.1588 12.9748 10.8048C14.2825 9.40649 15.0247 8.02587 15.44 6.1408C15.8552 4.16723 15.7934 2.60077 15.6167 1.49451C15.599 1.36175 15.5637 1.229 15.5283 1.0874C14.3797 2.00781 13.5668 3.22027 12.8776 4.60089C12.5065 5.35315 12.215 6.1231 12.0736 6.96386Z" fill="white"/>
<path fill-rule="evenodd" clip-rule="evenodd" d="M8.07105 23.8144C7.96502 23.9118 7.38187 24.4693 7.2405 24.3985C7.20515 24.3631 7.17865 24.1773 7.2405 24.1419C7.46139 23.9649 7.74413 23.8321 7.96502 23.664C7.89433 22.602 8.1329 21.5223 9.09598 20.5134C10.5804 19.0708 12.5507 18.584 14.3443 17.8406C14.4239 17.8052 14.5034 17.761 14.6006 17.7256C14.5829 17.7875 14.5741 17.8583 14.5476 17.9203C14.1941 19.1593 13.4873 20.6019 12.6302 21.5754C12.0736 22.2303 11.3226 22.8586 10.5362 23.2746C9.71447 23.7171 8.93694 23.8587 8.07105 23.8144Z" fill="white"/>
<path fill-rule="evenodd" clip-rule="evenodd" d="M6.83406 32.461C6.75454 32.6026 6.28625 33.3637 6.13604 33.3283C6.07419 33.3283 6.01235 33.1424 6.05652 33.0716C6.25091 32.815 6.4983 32.6114 6.66618 32.3459C6.36577 31.3724 6.50714 29.9652 7.23166 28.62C8.38029 26.6553 10.0591 25.6995 11.6848 24.3277C11.7555 24.2569 11.8262 24.195 11.9057 24.1153C11.9145 24.1773 11.9234 24.2481 11.9145 24.3277C11.8792 25.673 11.5258 27.3633 10.8984 28.6377C10.492 29.4962 9.89119 30.3547 9.20201 31.0715C8.48632 31.7884 7.72646 32.2043 6.83406 32.461Z" fill="white"/>
<path fill-rule="evenodd" clip-rule="evenodd" d="M7.64694 40.9394C7.58509 41.1075 7.267 42.0102 7.10796 42.0456C7.05495 42.0368 6.94892 41.904 6.9931 41.8067C7.12564 41.5058 7.27584 41.1606 7.39954 40.8509C6.85173 40.3287 6.66618 38.8773 7.10796 37.3551C7.84132 35.1249 9.47591 33.4522 10.7924 31.6025C10.8543 31.514 10.9161 31.4255 10.978 31.337C10.9956 31.399 11.0045 31.4698 11.0221 31.5406C11.2519 32.8415 11.2342 34.5673 10.8808 35.9745C10.6422 36.9126 10.2269 37.948 9.68797 38.833C9.13132 39.7711 8.46865 40.4172 7.64694 40.9394Z" fill="white"/>
<path fill-rule="evenodd" clip-rule="evenodd" d="M5.67659 50.8603C6.67502 51.5152 8.45981 52.0108 9.68797 51.2055C9.78516 51.2763 10.2976 51.586 10.3595 51.6391C10.4478 51.7276 10.5715 51.7896 10.651 51.6657C10.6952 51.6126 10.7217 51.5241 10.6334 51.4267C10.3771 51.2497 10.0944 51.1347 9.8205 50.9577C8.88392 49.0106 7.87666 47.692 6.33043 46.7185C4.5633 45.5857 3.08775 45.568 2.14234 45.568C2.00981 45.568 1.87727 45.5768 1.74474 45.5768C1.97447 47.4973 4.35125 50.0373 5.67659 50.8603Z" fill="white"/>
<path fill-rule="evenodd" clip-rule="evenodd" d="M10.5804 49.3558C10.5715 49.4797 10.5097 50.0284 10.4213 50.3647C10.3948 50.4621 10.386 50.6037 10.2534 50.5506C10.2004 50.5417 10.1474 50.4267 10.1474 50.3736C10.2093 50.0461 10.2623 49.6744 10.2888 49.3469C9.67913 48.9575 9.20201 47.6831 9.10481 46.1167C9.21084 43.7537 10.2711 41.612 11.1193 39.3817C11.1458 39.2844 11.1812 39.1782 11.2165 39.072C11.2519 39.1251 11.2695 39.1782 11.3049 39.2313C11.8704 40.3995 12.3033 42.0368 12.3387 43.5147C12.374 44.4794 12.2326 45.6034 11.9499 46.6477C11.6495 47.7185 11.2077 48.5593 10.5804 49.3558Z" fill="white"/>
<path fill-rule="evenodd" clip-rule="evenodd" d="M11.084 58.9404C12.2326 59.1705 13.7877 59.1174 14.7596 57.8784C15.007 57.9138 15.4046 57.9758 15.6608 57.9935C15.7315 58.0023 15.7845 57.9492 15.8111 57.8607C15.8287 57.7988 15.8111 57.7191 15.6962 57.6572C15.4046 57.5952 15.113 57.5952 14.8038 57.5421C13.5138 56.0288 12.2945 55.1792 10.5362 54.8606C8.50399 54.4889 6.78105 55.011 5.86214 55.3916C5.73844 55.4358 5.60591 55.4889 5.49104 55.5509C5.81796 56.2854 6.77221 57.0377 7.37303 57.4005C8.52166 58.1616 9.6968 58.7103 11.084 58.9404Z" fill="white"/>
<path fill-rule="evenodd" clip-rule="evenodd" d="M15.1926 55.7456C15.2102 55.8783 15.2279 56.4093 15.2279 56.7633C15.2191 56.8607 15.2456 56.9934 15.113 57.0023C15.0512 57.0023 14.9805 56.9226 14.9805 56.8607C14.954 56.5332 14.9717 56.1792 14.9187 55.8429C14.2383 55.6305 13.3371 54.5951 12.9218 53.1702C12.4447 50.8869 12.966 48.5327 13.2134 46.1167C13.2311 46.0105 13.2222 45.9043 13.2311 45.7892C13.2752 45.8335 13.3282 45.8777 13.3724 45.922C14.203 46.8335 15.0335 48.2407 15.4311 49.6213C15.705 50.524 15.8464 51.6391 15.8464 52.71C15.8287 53.8339 15.599 54.7809 15.1926 55.7456Z" fill="white"/>
<path fill-rule="evenodd" clip-rule="evenodd" d="M21.6249 60.3919C21.6867 60.4892 21.7663 60.9317 21.8546 61.268C21.8811 61.3477 21.9341 61.4716 21.8104 61.5158C21.7486 61.5424 21.6691 61.4893 21.6514 61.4362C21.5365 61.153 21.5365 60.8521 21.3952 60.5689C20.7325 60.7282 19.5839 59.8874 18.8328 58.79C17.7902 56.8961 17.6754 54.6747 17.2689 52.4179C17.2601 52.3117 17.2248 52.2144 17.2071 52.1082C17.2601 52.117 17.3131 52.1524 17.3661 52.1701C18.3645 52.6746 19.5043 53.5684 20.2377 54.6659C20.7413 55.3739 21.2096 56.3562 21.4747 57.3386C21.7486 58.374 21.7574 59.3564 21.6249 60.3919Z" fill="white"/>
<path fill-rule="evenodd" clip-rule="evenodd" d="M18.0111 64.6045C19.1863 64.4452 20.706 63.9053 21.3775 62.4008C21.6161 62.33 22.0313 62.2858 22.2787 62.215C22.3494 62.2061 22.3848 62.1265 22.3936 62.0291C22.3936 61.976 22.3583 61.8964 22.2346 61.8787C21.943 61.9229 21.6514 62.0114 21.3245 62.0468C19.6192 61.0379 18.2409 60.5777 16.4472 60.8344C14.3885 61.1264 12.8865 62.1619 12.0824 62.8256C11.9676 62.923 11.8527 63.0115 11.7467 63.1088C12.2415 63.7195 13.3548 64.1266 14.0174 64.3036C15.3163 64.6665 16.5886 64.8081 18.0111 64.6045Z" fill="white"/>
</g>
</g>
</svg>
